HIERARCHY
ROOT Bip001_Pelvis
{
  OFFSET 7.937 94.8971 -8.5489
  CHANNELS 6 Xposition Yposition Zposition Zrotation Xrotation Yrotation
  JOINT Bip001_Spine
  {
    OFFSET 1.44608e-005 10.4157 -0.0118244
    CHANNELS 3 Zrotation Xrotation Yrotation
    JOINT Bip001_L_Thigh
    {
      OFFSET 11.2582 -10.4157 0.0118432
      CHANNELS 3 Zrotation Xrotation Yrotation
      JOINT Bip001_L_Calf
      {
        OFFSET -0.720717 -44.8687 0.366937
        CHANNELS 3 Zrotation Xrotation Yrotation
        JOINT Bip001_L_Foot
        {
          OFFSET -0.664439 -41.3745 -3.62995
          CHANNELS 3 Zrotation Xrotation Yrotation
          JOINT Bip001_L_Toe0
          {
            OFFSET 0.0541047 -10.4146 13.4033
            CHANNELS 3 Zrotation Xrotation Yrotation
            End Site
            {
              OFFSET -1.04503e-005 0 7.70137
            }
          }
        }
      }
    }
    JOINT Bip001_R_Thigh
    {
      OFFSET -11.2582 -10.4156 0.0118122
      CHANNELS 3 Zrotation Xrotation Yrotation
      JOINT Bip001_R_Calf
      {
        OFFSET 0.72059 -44.8687 0.36676
        CHANNELS 3 Zrotation Xrotation Yrotation
        JOINT Bip001_R_Foot
        {
          OFFSET 0.664321 -41.3745 -3.62979
          CHANNELS 3 Zrotation Xrotation Yrotation
          JOINT Bip001_R_Toe0
          {
            OFFSET -0.05417 -10.4146 13.4033
            CHANNELS 3 Zrotation Xrotation Yrotation
            End Site
            {
              OFFSET -1.04873e-005 0 7.70137
            }
          }
        }
      }
    }
    JOINT Bip001_Spine1
    {
      OFFSET 1.90638e-005 14.8539 1.10727
      CHANNELS 3 Zrotation Xrotation Yrotation
      JOINT Bip001_Spine2
      {
        OFFSET 2.28934e-005 14.7848 -1.7233
        CHANNELS 3 Zrotation Xrotation Yrotation
        JOINT Bip001_Neck
        {
          OFFSET 2.24514e-005 15.6905 -0.498826
          CHANNELS 3 Zrotation Xrotation Yrotation
          JOINT Bip001_L_Clavicle
          {
            OFFSET 6.17691 -0.000591152 0.00852867
            CHANNELS 3 Zrotation Xrotation Yrotation
            JOINT Bip001_L_UpperArm
            {
              OFFSET 11.773 -0.0611878 0.00197697
              CHANNELS 3 Zrotation Xrotation Yrotation
              JOINT Bip001_L_Forearm
              {
                OFFSET 26.4515 0.0817568 -2.19579
                CHANNELS 3 Zrotation Xrotation Yrotation
                JOINT Bip001_L_Hand
                {
                  OFFSET 32.8677 0.156744 1.67112
                  CHANNELS 3 Zrotation Xrotation Yrotation
                  JOINT Bip001_L_Finger0
                  {
                    OFFSET 6.16268 -2.25226 6.01674
                    CHANNELS 3 Zrotation Xrotation Yrotation
                    End Site
                    {
                      OFFSET 4.30499 -1.46662 0.618148
                    }
                  }
                  JOINT Bip001_L_Finger1
                  {
                    OFFSET 11.2957 -0.718374 -0.201963
                    CHANNELS 3 Zrotation Xrotation Yrotation
                    End Site
                    {
                      OFFSET 6.31952 -0.405163 -0.0802303
                    }
                  }
                }
              }
            }
          }
          JOINT Bip001_R_Clavicle
          {
            OFFSET -6.17691 -0.000574027 0.00851165
            CHANNELS 3 Zrotation Xrotation Yrotation
            JOINT Bip001_R_UpperArm
            {
              OFFSET -11.773 -0.0611516 0.00194365
              CHANNELS 3 Zrotation Xrotation Yrotation
              JOINT Bip001_R_Forearm
              {
                OFFSET -26.4514 0.0822334 -2.19736
                CHANNELS 3 Zrotation Xrotation Yrotation
                JOINT Bip001_R_Hand
                {
                  OFFSET -32.8677 0.156817 1.67144
                  CHANNELS 3 Zrotation Xrotation Yrotation
                  JOINT Bip001_R_Finger0
                  {
                    OFFSET -6.1627 -2.25224 6.0167
                    CHANNELS 3 Zrotation Xrotation Yrotation
                    End Site
                    {
                      OFFSET -4.30499 -1.46662 0.618134
                    }
                  }
                  JOINT Bip001_R_Finger1
                  {
                    OFFSET -11.2958 -0.718344 -0.201994
                    CHANNELS 3 Zrotation Xrotation Yrotation
                    End Site
                    {
                      OFFSET -6.31952 -0.405146 -0.0802475
                    }
                  }
                }
              }
            }
          }
          JOINT Bip001_Head
          {
            OFFSET 1.11782e-005 11.4912 2.09908
            CHANNELS 3 Zrotation Xrotation Yrotation
            End Site
            {
              OFFSET 2.95144e-005 21.2823 -2.83069e-005
            }
          }
        }
      }
    }
  }
}
MOTION
Frames:	9
Frame Time:	0.04
5.61385 95.6264 -8.57243 -0.395587 -2.2048 6.66049 -0.172865 0.891157 0.690378 7.13416 -7.75968 7.53936 -0.554791 14.0808 -3.31855 -4.12428 -4.2447 -2.4636 0.534495 -9.93323 -0.0552126 -5.81919 -3.29496 -0.675698 0.915334 14.0827 0.531499 -0.678987 -8.2047 -13.7527 -0.841969 -11.397 0.0903586 -0.484071 1.77761 1.38142 -0.484181 1.7776 1.38129 -3.5357 -1.45643 -1.85436 -27.0708 7.24341 -12.1603 -50.0582 39.0384 9.12621 13.6022 4.09587 -25.4339 -5.52127 -0.432065 -0.642883 -3.18055e-015 -3.18055e-015 -0 -3.18055e-015 -6.36111e-015 3.18055e-015 25.3116 9.89102 24.1833 23.4776 -0.651027 30.6974 -53.7156 -0.137693 69.2339 -49.3792 11.2358 -2.89721 -6.36111e-015 6.36111e-015 -1.59028e-015 -6.36111e-015 6.36111e-015 -1.59028e-015 0.673127 0.956545 -2.96504 
5.62542 95.6236 -8.63496 -0.544547 -2.10475 6.23175 -0.113098 0.901152 0.760113 7.22944 -7.93442 7.21557 -0.691004 14.2778 -2.99494 -4.10515 -4.40014 -2.11767 0.53547 -9.92309 -0.0189834 -5.75516 -3.51448 -0.548764 0.891281 14.0013 0.698687 -0.687998 -8.05427 -13.7044 -0.819655 -11.4051 0.0899217 -0.36692 1.7992 1.51963 -0.365576 1.79919 1.51968 -3.70215 -1.6415 -1.85946 -27.2414 7.5656 -12.3506 -50.2129 40.3333 9.57203 13.6817 3.48141 -25.394 -5.8725 -0.477252 -0.427604 -3.18055e-015 -3.18055e-015 -0 -4.77083e-015 0 -0 25.5642 10.0187 23.8784 24.7022 -1.91873 31.1497 -54.173 0.581239 70.7074 -49.4976 10.4211 -2.50854 -3.18055e-015 0 -7.95139e-016 -4.77083e-015 3.18056e-015 -7.95139e-016 0.468967 0.830835 -2.96415 
5.69612 95.6296 -8.64338 -0.58222 -2.06872 5.88797 -0.175416 0.901264 0.930219 7.24755 -7.92693 6.88908 -0.723227 14.2855 -2.80943 -4.07697 -4.48371 -1.8324 0.544977 -9.92028 0.0140918 -5.74726 -3.57442 -0.948368 0.834828 13.9258 0.959043 -0.634182 -7.96158 -13.4143 -0.818149 -11.4083 0.12757 -0.493981 1.79801 1.86025 -0.493971 1.79801 1.86042 -2.79921 -1.76798 -2.35073 -27.6298 7.707 -12.8864 -50.8484 40.7065 9.93843 13.5685 3.22465 -25.0367 -5.71942 -0.500261 -0.26991 1.59028e-015 9.54166e-015 -4.77083e-015 2.64834e-031 9.54167e-015 -1.59028e-015 26.2909 10.4727 23.1862 24.2132 -2.93051 29.6647 -52.7902 0.249546 73.7622 -52.3243 9.29217 -0.628162 3.18055e-015 6.36111e-015 7.95139e-016 3.18055e-015 3.18056e-015 -7.95139e-016 -0.177695 0.82507 -3.03599 
5.74134 95.6301 -8.63862 -0.61331 -2.02323 5.76742 -0.190529 0.873748 0.89693 7.2816 -7.93165 7.07934 -0.710013 14.3382 -2.8523 -4.05433 -4.53456 -1.8381 0.548981 -9.91877 0.0176804 -5.75449 -3.59035 -1.13251 0.795401 13.8742 1.07215 -0.576818 -7.92455 -13.1998 -0.820932 -11.4083 0.148992 -0.525033 1.7434 1.79387 -0.524878 1.74337 1.7939 -2.92543 -1.73686 -2.16129 -27.4843 7.64661 -12.7218 -51.026 40.6394 10.004 13.5412 3.27875 -25.0077 -5.55043 -0.466647 -0.198554 -2.64834e-031 -9.54166e-015 -1.59028e-015 -0 -1.27222e-014 -0 27.9295 10.6468 22.6065 24.6256 -4.03161 26.3991 -54.2601 -0.607843 79.327 -53.4926 8.84892 -0.364748 -3.18055e-015 -3.18055e-015 7.95139e-016 -1.59028e-015 3.18056e-015 2.38542e-015 0.0447198 0.724286 -2.93987 
5.77656 95.6289 -8.61409 -0.607338 -2.00985 5.89263 -0.145222 0.867421 0.77994 7.23176 -7.94445 7.20568 -0.722113 14.37 -2.88181 -4.01335 -4.54478 -1.91852 0.541709 -9.91832 0.00662637 -5.80503 -3.5402 -0.942683 0.798024 13.8339 0.905379 -0.544549 -7.93837 -13.2197 -0.81544 -11.4083 0.140998 -0.430752 1.72658 1.55942 -0.43055 1.72658 1.55941 -3.30741 -1.96786 -1.87988 -27.522 7.85804 -12.3181 -51.0345 40.1735 9.96934 13.6568 3.31619 -25.2392 -5.50841 -0.361761 -0.230447 4.77083e-015 0 -0 1.59028e-015 0 3.18055e-015 28.8688 10.7348 21.8527 25.0757 -3.93111 22.2917 -53.5433 -0.813716 84.254 -52.3294 7.90372 0.765764 -3.18055e-015 3.18055e-015 -7.95139e-016 1.59028e-015 0 -1.59028e-015 0.136769 0.858216 -2.78607 
5.81177 95.6201 -8.56518 -0.563147 -2.0242 6.12353 -0.151988 0.865089 0.724926 7.18188 -7.94873 7.19969 -0.735231 14.4039 -2.99762 -3.97315 -4.55861 -1.95489 0.544467 -9.92043 -0.00717902 -5.85044 -3.46184 -0.934379 0.808103 13.8825 0.848338 -0.554921 -8.01998 -13.3137 -0.791946 -11.4082 0.108943 -0.439625 1.71169 1.44975 -0.439627 1.71169 1.44976 -3.08471 -2.06638 -1.94709 -27.87 7.92531 -12.2231 -50.695 39.1305 9.43641 13.5199 4.33267 -25.0662 -5.48436 -0.452547 -0.513695 1.59028e-015 1.27222e-014 -0 3.18055e-015 6.36111e-015 -1.59028e-015 29.5339 10.8221 21.0806 25.0363 -1.7255 16.5676 -53.6862 -1.35477 87.4892 -46.2698 7.39804 1.26686 6.36111e-015 0 -4.77083e-015 9.54166e-015 6.36111e-015 -4.77083e-015 -0.159038 0.941023 -2.71732 
5.81441 95.6097 -8.50763 -0.55754 -2.04838 6.35082 -0.190437 0.863637 0.699708 7.24756 -7.97862 7.26125 -0.761854 14.5012 -3.17095 -3.93547 -4.60202 -2.02899 0.542871 -9.92407 -0.00600306 -5.78219 -3.36298 -0.572523 0.876118 13.8927 0.475728 -0.579225 -8.08914 -13.4811 -0.780524 -11.4081 0.0759912 -0.512473 1.71801 1.40022 -0.512474 1.71801 1.40023 -2.88588 -1.98965 -2.03841 -27.9848 7.83799 -12.2969 -51.0123 40.114 9.90271 13.7564 3.47165 -25.4208 -5.56472 -0.434693 -0.699679 3.18055e-015 6.36111e-015 -1.59028e-015 4.77083e-015 6.36111e-015 -3.18055e-015 31.2198 11.0439 20.4685 24.7014 1.78817 9.73224 -52.5619 -1.634 88.6868 -37.5214 6.83192 1.75518 6.36111e-015 3.18055e-015 -6.36111e-015 6.36111e-015 3.18056e-015 -6.36111e-015 -0.161517 0.756364 -2.75617 
5.8055 95.5915 -8.45065 -0.552359 -2.04886 6.59064 -0.207963 0.884834 0.662539 7.2862 -8.07821 6.84037 -0.893161 14.6284 -3.01383 -3.89418 -4.68116 -1.95004 0.541117 -9.92485 -0.00418556 -5.73652 -3.33426 -0.593908 0.841127 13.9761 0.259761 -0.528365 -8.21096 -13.4291 -0.785392 -11.4078 0.0644648 -0.548887 1.7665 1.32657 -0.548686 1.76652 1.32653 -2.91147 -2.12716 -2.04297 -27.756 7.93401 -12.2472 -51.0903 40.4895 9.65098 13.7571 2.97138 -25.4794 -5.39355 -0.492398 -0.572546 8.82781e-032 -3.18055e-015 1.59028e-015 1.59028e-015 -6.36111e-015 -0 32.9247 11.2827 19.5436 25.2306 6.98235 2.98845 -47.6279 -0.37422 88.0221 -29.0688 6.62531 -0.784282 1.76556e-031 3.18055e-015 -3.18055e-015 -3.18055e-015 4.77083e-015 -3.18055e-015 -0.0130106 0.586455 -2.79637 
5.7217 95.583 -8.42719 -0.692131 -2.11574 6.47998 -0.138824 0.910813 0.683768 7.53598 -8.11166 7.07477 -1.04889 14.846 -3.19028 -3.84572 -4.81405 -1.92005 0.540524 -9.91797 -0.000300519 -5.5786 -3.30338 0.179327 0.971087 13.9036 -0.433903 -0.540722 -8.16583 -13.476 -0.8043 -11.4075 0.0996017 -0.415406 1.81913 1.36515 -0.415763 1.81913 1.36701 -3.21383 -2.22782 -1.95431 -27.5861 8.09443 -12.2702 -51.043 40.4592 9.3658 13.7624 2.90566 -25.5054 -5.37987 -0.490469 -0.760297 -3.18055e-015 -9.54166e-015 4.77083e-015 -1.59028e-015 -6.36111e-015 3.18055e-015 33.9789 11.4108 19.1448 28.506 11.2042 -3.55524 -41.1006 1.57013 84.4779 -15.0461 7.32242 -5.61118 3.97569e-016 -1.78906e-015 3.18055e-015 3.97569e-016 -1.98785e-016 6.36111e-015 0.0597442 0.691443 -2.80665 
